/* XPM */
static char *_[] = {
/* columns rows colors chars-per-pixel */
"50 50 3 1",
"  c #FF0000",
". c #00FF00",
"X c None",
/* pixels */
"XXXXXXXXXXXXXXXXXXXXXXXXXXXXXXXXXXXXXXXXXXXXXXXXXX",
"XXXXXXXXXXXXXXXXXXXXXXXXXXXXXXXXXXXXXXXXXXXXXXXXXX",
"XXXXXXXXXXXXXXXXXXXXXXXXXXXXXXXXXXXXXXXXXXXXXXXXXX",
"XXXXXXXXXXXXXXXXXXXXXXXXXXXXXXXXXXXXXXXXXXXXXXXXXX",
"XXXXXXXXXXXXXXXXXXXXXXXXXXXXXXXXXXXXXXXXXXXXXXXXXX",
"XXXXXXXX                                   XXXXXXX",
"XXXXXXXX ................................. XXXXXXX",
"XXXXXXXX ................................. XXXXXXX",
"XXXXXXXX ................................. XXXXXXX",
"XXXXXXXX ......   ..............   ....... XXXXXXX",
"XXXXXXXX ...... . .............. . ....... XXXXXXX",
"XXXXXXXX ......   ..............   ....... XXXXXXX",
"XXXXXXXX ................................. XXXXXXX",
"XXXXXXXX ................................. XXXXXXX",
"XXXXXXXX ................................. XXXXXXX",
"XXXXXXXX .......... .......... ........... XXXXXXX",
"XXXXXXXX ...........          ............ XXXXXXX",
"XXXXXXXX ................................. XXXXXXX",
"XXXXXXXX ................................. XXXXXXX",
"XXXXXXXX ................................. XXXXXXX",
"XXXXXXXX ................................. XXXXXXX",
"XXXXXXXX                                   XXXXXXX",
"XXXXXXXXXXXXXXXXXXXXXX .... XXXXXXXXXXXXXXXX  XXXX",
"XXXXXXXXXXXXXXXXXXXXXX .... XXXXXXXXXXXXXXXX XXXXX",
"XXXXXX XXXXXXXXXXXXXXX .... XXXXXXXXXXXXXXXX XXXXX",
"XXXXXX  XXXXXXXXXXXXXX .... XXXXXXXXXXXXXXX  XXXXX",
"XXXXXXX XXXXXXXXXXXXXX .... XXXXXXXXXXXXXXX  XXXXX",
"XXXXXXXX XXXXXXXXXXXXX .... XXXXXXXXXXXXXX  XXXXXX",
"XXXXXXXX  XXXXXXXXXXXX .... XXXXXXXXXXXX  X XXXXXX",
"XXXXXXXXX   XXXXXXXXXX .... XXXXXXXXX    X  XXXXXX",
"XXXXXXXXXXX            ....                XXXXXXX",
"XXXXXXXXXXXXXXXXXXXXXX .... XXXXXXXXXXXXXXXXXXXXXX",
"XXXXXXXXXXXXXXXXXXXXXX .... XXXXXXXXXXXXXXXXXXXXXX",
"XXXXXXXXXXXXXXXXXXXXXX .... XXXXXXXXXXXXXXXXXXXXXX",
"XXXXXXXXXXXXXXXXXXXXXX .... XXXXXXXXXXXXXXXXXXXXXX",
"XXXXXXXXXXXXXXXXXXXXXX .... XXXXXXXXXXXXXXXXXXXXXX",
"XXXXXXXXXXXXXXXXXXXXXX .... XXXXXXXXXXXXXXXXXXXXXX",
"XXXXXXXXXXXXXXXXXXXXXX .... XXXXXXXXXXXXXXXXXXXXXX",
"XXXXXXXXXXXXXXXXXXXXXX .... XXXXXXXXXXXXXXXXXXXXXX",
"XXXXXXXXXXXXXXXXXXXXX        XXXXXXXXXXXXXXXXXXXXX",
"XXXXXXXXXXXXXXXXXXXX  XXXXXX XXXXXXXXXXXXXXXXXXXXX",
"XXXXXXXXXXXXXXXXXXX  XXXXXXX  XXXXXXXXXXXXXXXXXXXX",
"XXXXXXXXXXXXXXXXXX  XXXXXXXXX XXXXXXXXXXXXXXXXXXXX",
"XXXXXXXXXXXXXXXXX  XXXXXXXXXX  XXXXXXXXXXXXXXXXXXX",
"XXXXXXXXXXXXXXXX  XXXXXXXXXXXX XXXXXXXXXXXXXXXXXXX",
"XXXXXXXXXXXXXXX  XXXXXXXXXXXXX  XXXXXXXXXXXXXXXXXX",
"XXXXXXXXXXXXXXX XXXXXXXXXXXXXXX  XXXXXXXXXXXXXXXXX",
"XXXXXXXXXXXXXXXXXXXXXXXXXXXXXXXX XXXXXXXXXXXXXXXXX",
"XXXXXXXXXXXXXXXXXXXXXXXXXXXXXXXXXXXXXXXXXXXXXXXXXX",
"XXXXXXXXXXXXXXXXXXXXXXXXXXXXXXXXXXXXXXXXXXXXXXXXXX"
};
